# xmcd
#
# Track frame offsets: 
#        150
#        21322
#        39732
#        58132
#        81095
#        101375
#        133410
#        158197
#        191047
#        217527
#        237585
#        262842
#
# Disc length: 3838 seconds
#
# Revision: 0
# Processed by: cddbd v1.5.1PL0 Copyright (c) Steve Scherf et al.
# Submitted via: ExactAudioCopy v0.95b1
#
DISCID=a40efc0c
DTITLE=L V Banks - Ruby - Chicago Blues Session Volume 52
DYEAR=1900
DGENRE=Blues
TTITLE0=Hard To Love A Woman
TTITLE1=Ruby
TTITLE2=Express Love
TTITLE3=Lonely Room
TTITLE4=Miss You Blue
TTITLE5=I LLove My Guitar
TTITLE6=I Made A Mistake
TTITLE7=Pipe Layer
TTITLE8=What Happened To Our Love
TTITLE9=Fallin' To Pieces
TTITLE10=Bobby Sox Baby
TTITLE11=Love Light
EXTD=
EXTT0=
EXTT1=
EXTT2=
EXTT3=
EXTT4=
EXTT5=
EXTT6=
EXTT7=
EXTT8=
EXTT9=
EXTT10=
EXTT11=
PLAYORDER=
